<svg width="40" height="40" viewBox="0 0 40 40" fill="none" xmlns="http://www.w3.org/2000/svg">
<path fill-rule="evenodd" clip-rule="evenodd" d="M26.6666 25.045C26.6666 24.382 26.93 23.7461 27.3989 23.2772C27.8677 22.8084 28.5036 22.545 29.1666 22.545C29.8297 22.545 30.4656 22.8084 30.9344 23.2772C31.4032 23.7461 31.6666 24.382 31.6666 25.045V35.8333C31.6666 36.0543 31.5788 36.2663 31.4225 36.4226C31.2663 36.5789 31.0543 36.6667 30.8333 36.6667C30.6123 36.6667 30.4003 36.5789 30.244 36.4226C30.0878 36.2663 30 36.0543 30 35.8333V25.045C30 24.824 29.9122 24.612 29.7559 24.4557C29.5996 24.2995 29.3876 24.2117 29.1666 24.2117C28.9456 24.2117 28.7336 24.2995 28.5774 24.4557C28.4211 24.612 28.3333 24.824 28.3333 25.045V25.3308C28.3333 25.5518 28.2455 25.7638 28.0892 25.9201C27.9329 26.0764 27.721 26.1642 27.5 26.1642C27.2789 26.1642 27.067 26.0764 26.9107 25.9201C26.7544 25.7638 26.6666 25.5518 26.6666 25.3308V25.045Z" fill="#9B9B9B"/>
<path d="M16.6046 35.4988L16.6045 35.4988C15.8274 35.4683 15.3333 34.9219 15.3333 34.3892V23.839L15.0082 23.8307C13.3129 23.7879 11.9248 23.2107 10.9533 22.2579C10.4856 21.7996 10.1157 21.2512 9.8659 20.6459C9.61619 20.0408 9.49172 19.3914 9.49999 18.7368C9.50654 18.0838 9.64233 17.4386 9.89952 16.8383C10.1567 16.238 10.5303 15.6945 10.9986 15.2393C10.9987 15.2392 10.9989 15.239 10.999 15.2389L11.3475 15.5975L16.6046 35.4988ZM16.6046 35.4988C17.3799 35.529 17.9376 35.0233 17.9947 34.4852L17.9947 34.4847L18.7627 27.1667M16.6046 35.4988L18.7627 27.1667M18.7627 27.1667H21.2372L22.0052 34.4855L22.0053 34.4862C22.0624 35.0236 22.6204 35.529 23.3953 35.4988L23.3954 35.4988C24.1725 35.4683 24.6666 34.9219 24.6666 34.3892V16.8166L25.138 17.031L25.1382 17.0311C25.9818 17.4143 26.5196 17.8971 26.8705 18.3227C27.2657 18.8039 27.6197 19.4378 27.7125 20.1063L27.7133 20.1139L27.7131 20.1139L27.7146 20.1261L27.7157 20.1345C27.7909 20.8395 28.4448 21.3919 29.2247 21.3283L29.1841 20.83M18.7627 27.1667L24.6666 16.2674L25.345 16.5758C26.2641 16.9933 26.8616 17.5258 27.2566 18.005C27.69 18.5325 28.1016 19.2542 28.2091 20.0475L28.2108 20.0642L28.2125 20.0775C28.2558 20.5042 28.6625 20.8725 29.1841 20.83M29.1841 20.83C29.6841 20.79 30.04 20.3583 30.0033 19.9308C29.9665 19.6046 29.8927 19.2837 29.7833 18.9742M29.1841 20.83L29.224 21.3284C29.9808 21.2679 30.5635 20.611 30.5015 19.8881L30.5016 19.8881L30.5001 19.8748C30.4593 19.5123 30.3774 19.1555 30.2561 18.8115M29.7833 18.9742L30.2574 18.8154C30.257 18.8141 30.2565 18.8128 30.2561 18.8115M29.7833 18.9742C29.5417 18.2526 29.1694 17.5817 28.685 16.995L29.7833 18.9742ZM30.2561 18.8115C29.9951 18.0335 29.5934 17.3101 29.0711 16.6773L30.2561 18.8115ZM10.5331 14.7622L10.5328 14.7625C10.0017 15.2792 9.57745 15.8967 9.28594 16.5777C8.99439 17.2587 8.84054 17.9908 8.83327 18.7316L8.83326 18.7325C8.82461 19.4762 8.96657 20.2139 9.25058 20.9013C9.53459 21.5887 9.95478 22.2114 10.4858 22.7321L10.4862 22.7325C11.438 23.6675 12.7192 24.2627 14.2259 24.4427L14.6666 24.4953V24.9392V34.3892C14.6666 35.3749 15.5459 36.1246 16.5777 36.1654L10.5331 14.7622ZM10.5331 14.7622C11.679 13.6453 13.2988 13 15.2125 13H21.3125C25.5405 13 28.117 14.4684 29.5864 16.2536L29.5868 16.254M10.5331 14.7622L29.5868 16.254M29.5868 16.254C30.1623 16.9516 30.6045 17.7491 30.8912 18.6067C31.0162 18.9846 31.1223 19.3867 31.1625 19.8041M29.5868 16.254L31.1625 19.8041M31.1625 19.8041V19.8063L31.1644 19.8283C31.2647 20.9605 30.3628 21.9054 29.2776 21.9933C28.1659 22.0823 27.1703 21.2969 27.0529 20.2081L27.052 20.1996L27.0508 20.1912C26.9788 19.685 26.7002 19.1661 26.3553 18.7466L26.3552 18.7464C26.3045 18.6849 26.2518 18.625 26.1971 18.567L25.3333 17.6506V18.91V34.3892C25.3333 35.3748 24.4541 36.1239 23.422 36.1645L23.4219 36.1646C22.3921 36.2052 21.4448 35.5321 21.3422 34.5537L21.3422 34.5536L20.6839 28.2811L20.6369 27.8333H20.1866H19.8133H19.363L19.316 28.2811L18.6577 34.5545L19.155 34.6067L18.6577 34.5545C18.5551 35.5319 17.6081 36.2052 16.578 36.1654L31.1625 19.8041ZM12.2974 18.7665L12.2974 18.7665L12.2974 18.7607C12.2994 18.4517 12.3624 18.1461 12.4829 17.8616C12.6032 17.5773 12.7785 17.3197 12.9987 17.1034C13.4015 16.7117 14.0342 16.3841 14.9839 16.3386L15.3333 16.3219V21.1775L14.9859 21.1622C14.9857 21.1622 14.9856 21.1622 14.9854 21.1621C14.9854 21.1621 14.9853 21.1621 14.9853 21.1621C13.9896 21.117 13.3522 20.7841 12.9602 20.3998C12.7454 20.1865 12.576 19.932 12.462 19.6516C12.348 19.3707 12.2919 19.0696 12.2974 18.7665ZM13.6666 20.0013L14.6666 19.9995V19.9995V19.9995V19.9994V19.9994V19.9994V19.9994V19.9994V19.9994V19.9993V19.9993V19.9993V19.9993V19.9992V19.9992V19.9992V19.9992V19.9992V19.9991V19.9991V19.9991V19.9991V19.9991V19.9991V19.999V19.999V19.999V19.999V19.999V19.9989V19.9989V19.9989V19.9989V19.9988V19.9988V19.9988V19.9988V19.9987V19.9987V19.9987V19.9987V19.9986V19.9986V19.9986V19.9985V19.9985V19.9985V19.9984V19.9984V19.9984V19.9983V19.9983V19.9983V19.9982V19.9982V19.9981V19.9981V19.9981V19.998V19.998V19.9979V19.9979V19.9978V19.9978V19.9977V19.9977V19.9976V19.9976V19.9975V19.9975V19.9974V19.9974V19.9973V19.9973V19.9972V19.9972V19.9971V19.997V19.997V19.9969V19.9969V19.9968V19.9967V19.9967V19.9966V19.9965V19.9965V19.9964V19.9963V19.9963V19.9962V19.9961V19.996V19.996V19.9959V19.9958V19.9957V19.9956V19.9956V19.9955V19.9954V19.9953V19.9952V19.9951V19.995V19.9949V19.9949V19.9948V19.9947V19.9946V19.9945V19.9944V19.9943V19.9942V19.9941V19.994V19.9939V19.9938V19.9937V19.9936V19.9934V19.9933V19.9932V19.9931V19.993V19.9929V19.9928V19.9926V19.9925V19.9924V19.9923V19.9922V19.992V19.9919V19.9918V19.9916V19.9915V19.9914V19.9912V19.9911V19.991V19.9908V19.9907V19.9906V19.9904V19.9903V19.9901V19.99V19.9898V19.9897V19.9895V19.9894V19.9892V19.9891V19.9889V19.9887V19.9886V19.9884V19.9882V19.9881V19.9879V19.9877V19.9876V19.9874V19.9872V19.987V19.9869V19.9867V19.9865V19.9863V19.9861V19.9859V19.9858V19.9856V19.9854V19.9852V19.985V19.9848V19.9846V19.9844V19.9842V19.984V19.9838V19.9836V19.9833V19.9831V19.9829V19.9827V19.9825V19.9823V19.982V19.9818V19.9816V19.9814V19.9811V19.9809V19.9807V19.9804V19.9802V19.98V19.9797V19.9795V19.9792V19.979V19.9787V19.9785V19.9782V19.978V19.9777V19.9775V19.9772V19.9769V19.9767V19.9764V19.9761V19.9759V19.9756V19.9753V19.975V19.9748V19.9745V19.9742V19.9739V19.9736V19.9733V19.973V19.9727V19.9724V19.9721V19.9718V19.9715V19.9712V19.9709V19.9706V19.9703V19.97V19.9697V19.9694V19.969V19.9687V19.9684V19.9681V19.9677V19.9674V19.9671V19.9667V19.9664V19.966V19.9657V19.9653V19.965V19.9646V19.9643V19.9639V19.9636V19.9632V19.9628V19.9625V19.9621V19.9617V19.9614V19.961V19.9606V19.9602V19.9598V19.9595V19.9591V19.9587V19.9583V19.9579V19.9575V19.9571V19.9567V19.9563V19.9559V19.9555V19.955V19.9546V19.9542V19.9538V19.9534V19.9529V19.9525V19.9521V19.9516V19.9512V19.9508V19.9503V19.9499V19.9494V19.949V19.9485V19.9481V19.9476V19.9471V19.9467V19.9462V19.9457V19.9453V19.9448V19.9443V19.9438V19.9433V19.9429V19.9424V19.9419V19.9414V19.9409V19.9404V19.9399V19.9394V19.9389V19.9384V19.9378V19.9373V19.9368V19.9363V19.9358V19.9352V19.9347V19.9342V19.9336V19.9331V19.9325V19.932V19.9314V19.9309V19.9303V19.9298V19.9292V19.9286V19.9281V19.9275V19.9269V19.9263V19.9258V19.9252V19.9246V19.924V19.9234V19.9228V19.9222V19.9216V19.921V19.9204V19.9198V19.9192V19.9186V19.9179V19.9173V19.9167V19.9161V19.9154V19.9148V19.9141V19.9135V19.9129V19.9122V19.9116V19.9109V19.9102V19.9096L14.6666 19.9089V19.9082V19.9076V19.9069V19.9062V19.9055V19.9048V19.9042V19.9035V19.9028V19.9021V19.9014V19.9007V19.8999V19.8992V19.8985V19.8978V19.8971V19.8963V19.8956V19.8949V19.8941V19.8934V19.8927V19.8919V19.8912V19.8904V19.8897V19.8889V19.8881V19.8874V19.8866V19.8858V19.885V19.8843V19.8835V19.8827V19.8819V19.8811V19.8803V19.8795V19.8787V19.8779V19.8771V19.8762V19.8754V19.8746V19.8738V19.8729V19.8721V19.8713V19.8704V19.8696V19.8687V19.8679V19.867V19.8661V19.8653V19.8644V19.8635V19.8626V19.8618V19.8609V19.86V19.8591V19.8582V19.8573V19.8564V19.8555V19.8546V19.8537V19.8528V19.8518V19.8509V19.85V19.849V19.8481V19.8472V19.8462V19.8453V19.8443V19.8433V19.8424V19.8414V19.8405V19.8395V19.8385V19.8375V19.8365V19.8355V19.8346V19.8336V19.8326V19.8315V19.8305V19.8295V19.8285V19.8275V19.8265V19.8254V19.8244V19.8234V19.8223V19.8213V19.8202V19.8192L14.6666 18.7594C14.6666 18.7593 14.6666 18.7592 14.6666 18.7591C14.6668 18.6448 14.6668 18.5381 14.6667 18.46L14.6667 18.3667L14.6666 18.3411L14.6666 18.3344L14.6666 18.3328L14.6666 18.3326L14.6666 18.3322V18.3321V18.332V17.6983H14.1666H13.6666V18.3328V18.7562C13.6649 18.9205 13.665 19.2319 13.6654 19.4999L13.6662 19.852L13.6665 19.9609L13.6666 19.9908L13.6666 19.9986L13.6666 19.9986V19.9987V19.9987V19.9987V19.9987V19.9988V19.9988V19.9988V19.9988V19.9989V19.9989V19.9989V19.9989V19.999V19.999V19.999V19.999V19.999V19.9991V19.9991V19.9991V19.9991V19.9991V19.9992V19.9992V19.9992V19.9992V19.9992V19.9993V19.9993V19.9993V19.9993V19.9993V19.9994V19.9994V19.9994V19.9994V19.9994V19.9994V19.9995V19.9995L13.6666 20.0006L13.6666 20.0011L13.6666 20.0012V20.0013ZM20 4.49999C19.2043 4.49999 18.4412 4.81607 17.8786 5.37867C17.316 5.94128 17 6.70435 17 7.49999C17 8.29564 17.316 9.05871 17.8786 9.62132C18.4412 10.1839 19.2043 10.5 20 10.5C20.7956 10.5 21.5587 10.1839 22.1213 9.62132C22.6839 9.05871 23 8.29564 23 7.49999C23 6.70435 22.6839 5.94128 22.1213 5.37867C21.5587 4.81607 20.7956 4.49999 20 4.49999ZM16.3333 7.49999C16.3333 6.52753 16.7196 5.5949 17.4072 4.90727C18.0949 4.21964 19.0275 3.83333 20 3.83333C20.9724 3.83333 21.9051 4.21964 22.5927 4.90727C23.2803 5.5949 23.6666 6.52753 23.6666 7.49999C23.6666 8.47246 23.2803 9.40509 22.5927 10.0927C21.9051 10.7804 20.9724 11.1667 20 11.1667C19.0275 11.1667 18.0949 10.7804 17.4072 10.0927C16.7196 9.40509 16.3333 8.47246 16.3333 7.49999Z" stroke="#9B9B9B"/>
</svg>
